<?xml version="1.0" encoding="utf-8"?>
<!-- Generator: Adobe Illustrator 24.2.3, SVG Export Plug-In . SVG Version: 6.00 Build 0)  -->
<svg version="1.1" id="Layer_1" xmlns="http://www.w3.org/2000/svg" xmlns:xlink="http://www.w3.org/1999/xlink" x="0px" y="0px"
	 viewBox="0 0 1920 1080" style="enable-background:new 0 0 1920 1080;" xml:space="preserve">
<style type="text/css">
	.st0{fill:none;stroke:#FF0000;stroke-linecap:round;stroke-linejoin:round;stroke-miterlimit:10;}
	.st1{fill:none;stroke:#0000FF;stroke-linecap:round;stroke-linejoin:round;stroke-miterlimit:10;}
	.st2{fill:none;stroke:#0000FF;stroke-miterlimit:10;}
	.st3{fill:none;}
	.st4{font-family:'MyriadPro-Regular';}
	.st5{font-size:12px;}
</style>
<g id="LWPOLYLINE_15_">
	<polygon class="st0" points="624.14,67.13 624.14,46.04 657.26,46.04 657.26,28.76 693.26,28.76 693.26,46.04 711.26,46.04 
		711.26,442.04 693.26,442.04 693.26,459.32 657.26,459.32 657.26,442.04 624.14,442.04 624.14,420.94 630.94,420.94 630.94,411.94 
		624.14,411.94 624.14,404.74 612.54,404.74 612.54,411.94 605.74,411.94 605.74,420.94 612.54,420.94 612.54,442.04 579.42,442.04 
		579.42,459.32 543.42,459.32 543.42,442.04 510.3,442.04 510.3,420.94 517.11,420.94 517.11,411.94 510.3,411.94 510.3,404.74 
		498.71,404.74 498.71,411.94 491.91,411.94 491.91,420.94 498.71,420.94 498.71,442.04 465.59,442.04 465.59,459.32 429.59,459.32 
		429.59,442.04 411.59,442.04 411.59,46.04 429.59,46.04 429.59,28.76 465.59,28.76 465.59,46.04 498.71,46.04 498.71,67.13 
		491.91,67.13 491.91,76.13 498.71,76.13 498.71,83.33 510.3,83.33 510.3,76.13 517.11,76.13 517.11,67.13 510.3,67.13 510.3,46.04 
		543.42,46.04 543.42,28.76 579.42,28.76 579.42,46.04 612.54,46.04 612.54,67.13 605.74,67.13 605.74,76.13 612.54,76.13 
		612.54,83.33 624.14,83.33 624.14,76.13 630.94,76.13 630.94,67.13 	"/>
</g>
<g id="LINE">
	<line class="st1" x1="561.42" y1="101.93" x2="561.42" y2="385.4"/>
</g>
<g id="LINE_1_">
	<line class="st1" x1="441.8" y1="130.28" x2="681.05" y2="130.28"/>
</g>
<g id="LINE_2_">
	<line class="st1" x1="441.8" y1="158.63" x2="681.05" y2="158.63"/>
</g>
<g id="LINE_3_">
	<line class="st1" x1="441.8" y1="186.97" x2="681.05" y2="186.97"/>
</g>
<g id="LINE_4_">
	<line class="st1" x1="441.8" y1="215.32" x2="681.05" y2="215.32"/>
</g>
<g id="LINE_5_">
	<line class="st1" x1="441.8" y1="243.67" x2="681.05" y2="243.67"/>
</g>
<g id="LINE_6_">
	<line class="st1" x1="441.8" y1="272.01" x2="681.05" y2="272.01"/>
</g>
<g id="LINE_7_">
	<line class="st1" x1="441.8" y1="300.36" x2="681.05" y2="300.36"/>
</g>
<g id="LINE_8_">
	<line class="st1" x1="441.8" y1="328.71" x2="681.05" y2="328.71"/>
</g>
<g id="LINE_9_">
	<line class="st1" x1="441.8" y1="357.05" x2="681.05" y2="357.05"/>
</g>
<g id="LINE_10_">
	<line class="st1" x1="441.8" y1="385.4" x2="681.05" y2="385.4"/>
</g>
<g id="LINE_11_">
	<line class="st1" x1="441.8" y1="101.93" x2="681.05" y2="101.93"/>
</g>
<g id="CIRCLE_26_">
	<path class="st0" d="M562.5,764.64c0-4.37,3.55-7.92,7.92-7.92s7.92,3.55,7.92,7.92c0,4.37-3.55,7.92-7.92,7.92
		S562.5,769.01,562.5,764.64L562.5,764.64z"/>
</g>
<g id="CIRCLE_25_">
	<path class="st0" d="M562.5,577.44c0-4.37,3.55-7.92,7.92-7.92s7.92,3.55,7.92,7.92s-3.55,7.92-7.92,7.92
		S562.5,581.81,562.5,577.44L562.5,577.44z"/>
</g>
<g id="CIRCLE_24_">
	<path class="st0" d="M450.9,577.44c0-4.37,3.55-7.92,7.92-7.92c4.37,0,7.92,3.55,7.92,7.92s-3.55,7.92-7.92,7.92
		C454.45,585.36,450.9,581.81,450.9,577.44L450.9,577.44z"/>
</g>
<g id="CIRCLE_23_">
	<path class="st0" d="M674.1,764.64c0-4.37,3.55-7.92,7.92-7.92s7.92,3.55,7.92,7.92c0,4.37-3.55,7.92-7.92,7.92
		S674.1,769.01,674.1,764.64L674.1,764.64z"/>
</g>
<g id="CIRCLE_22_">
	<path class="st0" d="M450.9,764.64c0-4.37,3.55-7.92,7.92-7.92c4.37,0,7.92,3.55,7.92,7.92c0,4.37-3.55,7.92-7.92,7.92
		C454.45,772.56,450.9,769.01,450.9,764.64L450.9,764.64z"/>
</g>
<g id="CIRCLE_21_">
	<path class="st0" d="M674.1,577.44c0-4.37,3.55-7.92,7.92-7.92s7.92,3.55,7.92,7.92s-3.55,7.92-7.92,7.92
		S674.1,581.81,674.1,577.44L674.1,577.44z"/>
</g>
<g id="CIRCLE_20_">
	<path class="st0" d="M450.9,671.04c0-4.37,3.55-7.92,7.92-7.92c4.37,0,7.92,3.55,7.92,7.92s-3.55,7.92-7.92,7.92
		C454.45,678.96,450.9,675.41,450.9,671.04L450.9,671.04z"/>
</g>
<g id="CIRCLE_19_">
	<path class="st0" d="M674.1,671.04c0-4.37,3.55-7.92,7.92-7.92s7.92,3.55,7.92,7.92s-3.55,7.92-7.92,7.92
		S674.1,675.41,674.1,671.04L674.1,671.04z"/>
</g>
<g id="LWPOLYLINE_28_">
	<rect x="403.31" y="595.44" class="st0" width="17.28" height="36"/>
</g>
<g id="LWPOLYLINE_27_">
	<rect x="438.59" y="819.36" class="st0" width="36" height="17.28"/>
</g>
<g id="LWPOLYLINE_26_">
	<rect x="666.26" y="819.36" class="st0" width="36" height="17.28"/>
</g>
<g id="LWPOLYLINE_25_">
	<rect x="720.26" y="595.44" class="st0" width="17.28" height="36"/>
</g>
<g id="CIRCLE_18_">
	<path class="st0" d="M723.1,577.44c0-3.2,2.59-5.8,5.8-5.8s5.8,2.59,5.8,5.8s-2.59,5.8-5.8,5.8S723.1,580.64,723.1,577.44
		L723.1,577.44z"/>
</g>
<g id="LWPOLYLINE_24_">
	<rect x="720.26" y="782.64" class="st0" width="17.28" height="36"/>
</g>
<g id="CIRCLE_17_">
	<path class="st0" d="M507.71,828c0-3.2,2.59-5.8,5.8-5.8s5.8,2.59,5.8,5.8s-2.59,5.8-5.8,5.8S507.71,831.2,507.71,828L507.71,828z"
		/>
</g>
<g id="LWPOLYLINE_23_">
	<rect x="403.31" y="710.64" class="st0" width="17.28" height="36"/>
</g>
<g id="CIRCLE_16_">
	<path class="st0" d="M406.16,577.44c0-3.2,2.59-5.8,5.8-5.8s5.8,2.59,5.8,5.8s-2.59,5.8-5.8,5.8S406.16,580.64,406.16,577.44
		L406.16,577.44z"/>
</g>
<g id="LWPOLYLINE_22_">
	<rect x="403.31" y="782.64" class="st0" width="17.28" height="36"/>
</g>
<g id="CIRCLE_15_">
	<path class="st0" d="M621.54,828c0-3.2,2.59-5.8,5.8-5.8c3.2,0,5.8,2.59,5.8,5.8s-2.59,5.8-5.8,5.8
		C624.14,833.79,621.54,831.2,621.54,828L621.54,828z"/>
</g>
<g id="LWPOLYLINE_21_">
	<rect x="720.26" y="710.64" class="st0" width="17.28" height="36"/>
</g>
<g id="LWPOLYLINE_20_">
	<rect x="720.26" y="523.44" class="st0" width="17.28" height="36"/>
</g>
<g id="CIRCLE_14_">
	<path class="st0" d="M723.1,764.64c0-3.2,2.59-5.8,5.8-5.8s5.8,2.59,5.8,5.8c0,3.2-2.59,5.8-5.8,5.8S723.1,767.84,723.1,764.64
		L723.1,764.64z"/>
</g>
<g id="LWPOLYLINE_19_">
	<rect x="552.42" y="819.36" class="st0" width="36" height="17.28"/>
</g>
<g id="CIRCLE_13_">
	<path class="st0" d="M406.16,764.64c0-3.2,2.59-5.8,5.8-5.8s5.8,2.59,5.8,5.8c0,3.2-2.59,5.8-5.8,5.8S406.16,767.84,406.16,764.64
		L406.16,764.64z"/>
</g>
<g id="LWPOLYLINE_18_">
	<rect x="403.31" y="523.44" class="st0" width="17.28" height="36"/>
</g>
<g id="LWPOLYLINE_17_">
	<path class="st0" d="M743.22,491.04c3.98,0,7.2,3.22,7.2,7.2v345.6c0,3.98-3.22,7.2-7.2,7.2h-345.6c-3.98,0-7.2-3.22-7.2-7.2
		v-345.6c0-3.98,3.22-7.2,7.2-7.2H743.22z"/>
</g>
<g>
	<g id="LWPOLYLINE_14_">
		<path class="st0" d="M389.22,43.04c3.98,0,7.2,3.22,7.2,7.2v345.6c0,3.98-3.22,7.2-7.2,7.2H43.62c-3.98,0-7.2-3.22-7.2-7.2V50.24
			c0-3.98,3.22-7.2,7.2-7.2H389.22z"/>
	</g>
	<g id="LWPOLYLINE_13_">
		<rect x="49.31" y="147.44" class="st0" width="17.28" height="36"/>
	</g>
	<g id="LWPOLYLINE_12_">
		<rect x="84.59" y="371.36" class="st0" width="36" height="17.28"/>
	</g>
	<g id="LWPOLYLINE_3_">
		<rect x="312.26" y="371.36" class="st0" width="36" height="17.28"/>
	</g>
	<g id="LWPOLYLINE_4_">
		<rect x="366.26" y="147.44" class="st0" width="17.28" height="36"/>
	</g>
	<g id="CIRCLE_12_">
		<path class="st0" d="M369.1,129.44c0-3.2,2.59-5.8,5.8-5.8s5.8,2.59,5.8,5.8c0,3.2-2.59,5.8-5.8,5.8S369.1,132.64,369.1,129.44
			L369.1,129.44z"/>
	</g>
	<g id="CIRCLE_11_">
		<path class="st0" d="M369.1,316.64c0-3.2,2.59-5.8,5.8-5.8s5.8,2.59,5.8,5.8s-2.59,5.8-5.8,5.8S369.1,319.84,369.1,316.64
			L369.1,316.64z"/>
	</g>
	<g id="CIRCLE_2_">
		<path class="st0" d="M153.71,380c0-3.2,2.59-5.8,5.8-5.8c3.2,0,5.8,2.59,5.8,5.8c0,3.2-2.59,5.8-5.8,5.8
			C156.31,385.79,153.71,383.2,153.71,380L153.71,380z"/>
	</g>
	<g id="LWPOLYLINE_5_">
		<rect x="49.31" y="262.64" class="st0" width="17.28" height="36"/>
	</g>
	<g id="CIRCLE_3_">
		<path class="st0" d="M52.16,129.44c0-3.2,2.59-5.8,5.8-5.8s5.8,2.59,5.8,5.8c0,3.2-2.59,5.8-5.8,5.8S52.16,132.64,52.16,129.44
			L52.16,129.44z"/>
	</g>
	<g id="LWPOLYLINE_6_">
		<rect x="49.31" y="334.64" class="st0" width="17.28" height="36"/>
	</g>
	<g id="CIRCLE_4_">
		<path class="st0" d="M267.54,380c0-3.2,2.59-5.8,5.8-5.8s5.8,2.59,5.8,5.8c0,3.2-2.59,5.8-5.8,5.8S267.54,383.2,267.54,380
			L267.54,380z"/>
	</g>
	<g id="LWPOLYLINE_7_">
		<rect x="366.26" y="262.64" class="st0" width="17.28" height="36"/>
	</g>
	<g id="LWPOLYLINE_8_">
		<rect x="366.26" y="75.44" class="st0" width="17.28" height="36"/>
	</g>
	<g id="LWPOLYLINE_9_">
		<rect x="366.26" y="334.64" class="st0" width="17.28" height="36"/>
	</g>
	<g id="LWPOLYLINE_10_">
		<rect x="198.42" y="371.36" class="st0" width="36" height="17.28"/>
	</g>
	<g id="CIRCLE_5_">
		<path class="st0" d="M52.16,316.64c0-3.2,2.59-5.8,5.8-5.8s5.8,2.59,5.8,5.8s-2.59,5.8-5.8,5.8S52.16,319.84,52.16,316.64
			L52.16,316.64z"/>
	</g>
	<g id="LWPOLYLINE_11_">
		<rect x="49.31" y="75.44" class="st0" width="17.28" height="36"/>
	</g>
	<g id="CIRCLE_6_">
		<path class="st0" d="M126.13,305.77c0-4.18,3.38-7.56,7.56-7.56c4.18,0,7.56,3.38,7.56,7.56s-3.38,7.56-7.56,7.56
			C129.52,313.33,126.13,309.95,126.13,305.77L126.13,305.77z"/>
	</g>
	<g id="CIRCLE_7_">
		<path class="st0" d="M126.13,140.31c0-4.18,3.38-7.56,7.56-7.56c4.18,0,7.56,3.38,7.56,7.56c0,4.18-3.38,7.56-7.56,7.56
			C129.52,147.87,126.13,144.48,126.13,140.31L126.13,140.31z"/>
	</g>
	<g id="CIRCLE_8_">
		<path class="st0" d="M291.59,305.77c0-4.18,3.38-7.56,7.56-7.56s7.56,3.38,7.56,7.56s-3.38,7.56-7.56,7.56
			S291.59,309.95,291.59,305.77L291.59,305.77z"/>
	</g>
	<g id="CIRCLE_9_">
		<path class="st0" d="M112.02,223.04c0-57.66,46.74-104.4,104.4-104.4s104.4,46.74,104.4,104.4s-46.74,104.4-104.4,104.4
			S112.02,280.7,112.02,223.04L112.02,223.04z"/>
	</g>
	<g id="CIRCLE_10_">
		<path class="st0" d="M291.59,140.31c0-4.18,3.38-7.56,7.56-7.56s7.56,3.38,7.56,7.56c0,4.18-3.38,7.56-7.56,7.56
			S291.59,144.48,291.59,140.31L291.59,140.31z"/>
	</g>
	<g>
		<circle class="st2" cx="57.5" cy="60.5" r="9.5"/>
		<rect x="54.45" y="55.65" class="st3" width="7.09" height="11.35"/>
		<text transform="matrix(1 0 0 1 54.4546 64.1699)" class="st4 st5">1</text>
	</g>
</g>
<g id="LWPOLYLINE_29_">
	<polygon class="st0" points="731.65,159.6 752.75,159.6 752.75,166.41 761.75,166.41 761.75,159.6 768.95,159.6 768.95,148.01 
		761.75,148.01 761.75,141.21 752.75,141.21 752.75,148.01 731.65,148.01 731.65,135.81 715.81,135.81 715.81,99.81 731.65,99.81 
		731.65,45.81 749.65,45.81 749.65,28.53 785.65,28.53 785.65,45.81 797.86,45.81 797.86,66.9 791.05,66.9 791.05,75.9 797.86,75.9 
		797.86,83.1 809.45,83.1 809.45,75.9 816.25,75.9 816.25,66.9 809.45,66.9 809.45,45.81 821.65,45.81 821.65,28.53 857.65,28.53 
		857.65,45.81 936.85,45.81 936.85,28.53 972.85,28.53 972.85,45.81 985.06,45.81 985.06,66.9 978.25,66.9 978.25,75.9 985.06,75.9 
		985.06,83.1 996.65,83.1 996.65,75.9 1003.45,75.9 1003.45,66.9 996.65,66.9 996.65,45.81 1008.85,45.81 1008.85,28.53 
		1044.85,28.53 1044.85,45.81 1062.85,45.81 1062.85,441.81 1044.85,441.81 1044.85,459.09 1008.85,459.09 1008.85,441.81 
		996.65,441.81 996.65,420.71 1003.45,420.71 1003.45,411.71 996.65,411.71 996.65,404.51 985.06,404.51 985.06,411.71 
		978.25,411.71 978.25,420.71 985.06,420.71 985.06,441.81 972.85,441.81 972.85,459.09 936.85,459.09 936.85,441.81 857.65,441.81 
		857.65,459.09 821.65,459.09 821.65,441.81 809.45,441.81 809.45,420.71 816.25,420.71 816.25,411.71 809.45,411.71 809.45,404.51 
		797.86,404.51 797.86,411.71 791.05,411.71 791.05,420.71 797.86,420.71 797.86,441.81 785.65,441.81 785.65,459.09 749.65,459.09 
		749.65,441.81 731.65,441.81 731.65,207.81 715.81,207.81 715.81,171.81 731.65,171.81 	"/>
</g>
<g>
	<circle class="st2" cx="899.41" cy="64.27" r="9.5"/>
	<rect x="896.37" y="59.42" class="st3" width="7.09" height="11.35"/>
	<text transform="matrix(1 0 0 1 896.3656 67.9395)" class="st4 st5">3</text>
</g>
<g>
	<circle class="st2" cx="412.5" cy="508.5" r="9.5"/>
	<rect x="409.45" y="503.65" class="st3" width="7.09" height="11.35"/>
	<text transform="matrix(1 0 0 1 409.4547 512.1699)" class="st4 st5">5</text>
</g>
<g>
	<circle class="st2" cx="561.5" cy="64.5" r="9.5"/>
	<rect x="558.45" y="59.65" class="st3" width="7.09" height="11.35"/>
	<text transform="matrix(1 0 0 1 558.4547 68.1699)" class="st4 st5">4</text>
</g>
<rect x="441.59" y="88.92" class="st3" width="66.45" height="21.79"/>
<text transform="matrix(1 0 0 1 441.5949 97.4446)" class="st4 st5">0</text>
<rect x="441.59" y="117.27" class="st3" width="66.45" height="21.79"/>
<text transform="matrix(1 0 0 1 441.5949 125.791)" class="st4 st5">1cm</text>
<rect x="441.59" y="145.62" class="st3" width="66.45" height="21.79"/>
<text transform="matrix(1 0 0 1 441.5949 154.1375)" class="st4 st5">2cm</text>
<rect x="441.59" y="173.96" class="st3" width="66.45" height="21.79"/>
<text transform="matrix(1 0 0 1 441.5949 182.4839)" class="st4 st5">3cm</text>
<rect x="441.91" y="202.31" class="st3" width="66.45" height="21.79"/>
<text transform="matrix(1 0 0 1 441.9058 210.8304)" class="st4 st5">4cm</text>
<rect x="441.59" y="230.66" class="st3" width="66.45" height="21.79"/>
<text transform="matrix(1 0 0 1 441.595 239.1768)" class="st4 st5">5cm</text>
<rect x="441.59" y="259" class="st3" width="66.45" height="21.79"/>
<text transform="matrix(1 0 0 1 441.595 267.5233)" class="st4 st5">6cm</text>
<rect x="441.59" y="287.35" class="st3" width="66.45" height="21.79"/>
<text transform="matrix(1 0 0 1 441.595 295.8698)" class="st4 st5">7cm</text>
<rect x="441.59" y="315.7" class="st3" width="66.45" height="21.79"/>
<text transform="matrix(1 0 0 1 441.595 324.2162)" class="st4 st5">8cm</text>
<rect x="441.59" y="344.04" class="st3" width="66.45" height="21.79"/>
<text transform="matrix(1 0 0 1 441.595 352.5627)" class="st4 st5">9cm</text>
<rect x="441.59" y="372.05" class="st3" width="66.45" height="21.79"/>
<text transform="matrix(1 0 0 1 441.595 380.5739)" class="st4 st5">10cm</text>
<g>
	<g id="LWPOLYLINE_16_">
		<polygon class="st0" points="40.74,565.83 61.84,565.83 61.84,572.64 70.84,572.64 70.84,565.83 78.04,565.83 78.04,554.24 
			70.84,554.24 70.84,547.44 61.84,547.44 61.84,554.24 40.74,554.24 40.74,542.04 24.9,542.04 24.9,506.04 40.74,506.04 
			40.74,452.04 58.74,452.04 58.74,434.76 94.74,434.76 94.74,452.04 106.95,452.04 106.95,473.13 100.14,473.13 100.14,482.13 
			106.95,482.13 106.95,489.33 118.54,489.33 118.54,482.13 125.34,482.13 125.34,473.13 118.54,473.13 118.54,452.04 
			130.74,452.04 130.74,434.76 166.74,434.76 166.74,452.04 245.94,452.04 245.94,434.76 281.94,434.76 281.94,452.04 
			294.15,452.04 294.15,473.13 287.34,473.13 287.34,482.13 294.15,482.13 294.15,489.33 305.74,489.33 305.74,482.13 
			312.54,482.13 312.54,473.13 305.74,473.13 305.74,452.04 317.94,452.04 317.94,434.76 353.94,434.76 353.94,452.04 
			371.94,452.04 371.94,848.04 353.94,848.04 353.94,865.32 317.94,865.32 317.94,848.04 305.74,848.04 305.74,826.94 
			312.54,826.94 312.54,817.94 305.74,817.94 305.74,810.74 294.15,810.74 294.15,817.94 287.34,817.94 287.34,826.94 
			294.15,826.94 294.15,848.04 281.94,848.04 281.94,865.32 245.94,865.32 245.94,848.04 166.74,848.04 166.74,865.32 
			130.74,865.32 130.74,848.04 118.54,848.04 118.54,826.94 125.34,826.94 125.34,817.94 118.54,817.94 118.54,810.74 
			106.95,810.74 106.95,817.94 100.14,817.94 100.14,826.94 106.95,826.94 106.95,848.04 94.74,848.04 94.74,865.32 58.74,865.32 
			58.74,848.04 40.74,848.04 40.74,614.04 24.9,614.04 24.9,578.04 40.74,578.04 		"/>
	</g>
	<g>
		<circle class="st2" cx="208.5" cy="470.5" r="9.5"/>
		<rect x="205.45" y="465.65" class="st3" width="7.09" height="11.35"/>
		<text transform="matrix(1 0 0 1 205.4547 474.1699)" class="st4 st5">2</text>
	</g>
</g>
</svg>
