<?xml version="1.0" encoding="utf-8"?>
<!-- Generator: Adobe Illustrator 24.2.3, SVG Export Plug-In . SVG Version: 6.00 Build 0)  -->
<svg version="1.1" id="Layer_1" xmlns="http://www.w3.org/2000/svg" xmlns:xlink="http://www.w3.org/1999/xlink" x="0px" y="0px"
	 viewBox="0 0 1920 1080" style="enable-background:new 0 0 1920 1080;" xml:space="preserve">
<style type="text/css">
	.st0{fill:none;stroke:#FF0000;stroke-linecap:round;stroke-linejoin:round;stroke-miterlimit:10;}
	.st1{fill:none;stroke:#0000FF;stroke-miterlimit:10;}
	.st2{fill:none;}
	.st3{font-family:'MyriadPro-Regular';}
	.st4{font-size:12px;}
</style>
<g id="LWPOLYLINE_62_">
	<path class="st0" d="M1071.96,435.9c7.95,0,14.4,6.45,14.4,14.4v46.08h-36V479.1h-25.34V458h6.8v-9h-6.8v-7.2h-11.59v7.2h-6.8v9
		h6.8v21.1h-25.34v-14.51H970.8v-36h17.28v-14.51h21.1v6.8h9v-6.8h7.2v-11.59h-7.2v-6.8h-9v6.8h-21.1v-21.82H970.8v-36h60.48
		c7.95,0,14.4,6.45,14.4,14.4v62.42c0,7.95,6.45,14.4,14.4,14.4H1071.96z"/>
</g>
<g id="LWPOLYLINE_63_">
	<path class="st0" d="M1071.96,578.9c7.95,0,14.4,6.45,14.4,14.4v46.08h-36V622.1h-25.34V601h6.8v-9h-6.8v-7.2h-11.59v7.2h-6.8v9
		h6.8v21.1h-25.34v-14.51H970.8v-36h17.28v-14.51h21.1v6.8h9v-6.8h7.2v-11.59h-7.2v-6.8h-9v6.8h-21.1v-21.82H970.8v-36h60.48
		c7.95,0,14.4,6.45,14.4,14.4v62.42c0,7.95,6.45,14.4,14.4,14.4H1071.96z"/>
</g>
<g>
	<g id="CIRCLE_48_">
		<path class="st0" d="M1123.79,603c0-3.2,2.59-5.8,5.8-5.8c3.2,0,5.8,2.59,5.8,5.8c0,3.2-2.59,5.8-5.8,5.8
			C1126.38,608.79,1123.79,606.2,1123.79,603L1123.79,603z"/>
	</g>
	<g id="CIRCLE_47_">
		<path class="st0" d="M1195.79,603c0-3.2,2.59-5.8,5.8-5.8c3.2,0,5.8,2.59,5.8,5.8c0,3.2-2.59,5.8-5.8,5.8
			C1198.38,608.79,1195.79,606.2,1195.79,603L1195.79,603z"/>
	</g>
	<g id="LWPOLYLINE_61_">
		<path class="st0" d="M1093.58,297.97c0-19.88,16.12-36,36-36h72c19.88,0,36,16.12,36,36v375.84h-18v17.28h-36v-17.28h-12.2v-21.1
			h6.8v-9h-6.8v-7.2h-11.59v7.2h-6.8v9h6.8v21.1h-12.2v17.28h-36v-17.28h-18V297.97z"/>
	</g>
	<g id="LWPOLYLINE_60_">
		<path class="st0" d="M1174.58,325v-43.2c0-4.97-4.03-9-9-9c-4.97,0-9,4.03-9,9V325c0,4.97,4.03,9,9,9
			C1170.55,334,1174.58,329.97,1174.58,325z"/>
	</g>
	<g id="LWPOLYLINE_59_">
		<rect x="1120.94" y="539.38" class="st0" width="17.28" height="36"/>
	</g>
	<g id="LWPOLYLINE_58_">
		<rect x="1192.94" y="623.3" class="st0" width="17.28" height="36"/>
	</g>
	<g id="LWPOLYLINE_57_">
		<rect x="1192.94" y="539.38" class="st0" width="17.28" height="36"/>
	</g>
	<g id="LWPOLYLINE_56_">
		<rect x="1120.94" y="623.3" class="st0" width="17.28" height="36"/>
	</g>
	<g>
		<circle class="st1" cx="1165.5" cy="360.5" r="9.5"/>
		<rect x="1162.45" y="355.65" class="st2" width="7.09" height="11.35"/>
		<text transform="matrix(1 0 0 1 1162.4546 364.1699)" class="st3 st4">7</text>
	</g>
</g>
</svg>
