<?xml version="1.0" encoding="utf-8"?>
<!-- Generator: Adobe Illustrator 24.2.3, SVG Export Plug-In . SVG Version: 6.00 Build 0)  -->
<svg version="1.1" id="Layer_1" xmlns="http://www.w3.org/2000/svg" xmlns:xlink="http://www.w3.org/1999/xlink" x="0px" y="0px"
	 viewBox="0 0 1920 1080" style="enable-background:new 0 0 1920 1080;" xml:space="preserve">
<style type="text/css">
	.st0{fill:none;stroke:#FF0000;stroke-linecap:round;stroke-linejoin:round;stroke-miterlimit:10;}
</style>
<g>
	<g id="LWPOLYLINE_88_">
		<path class="st0" d="M1269.34,259.57c-3.98,0-7.2,3.22-7.2,7.2v28.8c0,3.98,3.22,7.2,7.2,7.2h40.68c3.98,0,7.2,3.22,7.2,7.2v76.82
			c0,3.98,3.22,7.2,7.2,7.2h28.8c3.98,0,7.2-3.22,7.2-7.2V266.77c0-3.98-3.22-7.2-7.2-7.2H1269.34z"/>
	</g>
	<g id="LWPOLYLINE_87_">
		<rect x="1328.74" y="307.73" class="st0" width="17.28" height="36"/>
	</g>
	<g id="CIRCLE_70_">
		<path class="st0" d="M1337.38,376.85c-3.2,0-5.8,2.59-5.8,5.8c0,3.2,2.59,5.8,5.8,5.8s5.8-2.59,5.8-5.8
			C1343.18,379.45,1340.58,376.85,1337.38,376.85L1337.38,376.85z"/>
	</g>
	<g id="LWPOLYLINE_86_">
		<rect x="1292.02" y="272.45" class="st0" width="36" height="17.28"/>
	</g>
	<g id="CIRCLE_69_">
		<path class="st0" d="M1274.02,275.3c-3.2,0-5.8,2.59-5.8,5.8c0,3.2,2.59,5.8,5.8,5.8s5.8-2.59,5.8-5.8
			C1279.82,277.89,1277.22,275.3,1274.02,275.3L1274.02,275.3z"/>
	</g>
</g>
<g>
	<g id="LWPOLYLINE_91_">
		<path class="st0" d="M1351.18,450.22c3.98,0,7.2-3.22,7.2-7.2v-28.8c0-3.98-3.22-7.2-7.2-7.2h-40.68c-3.98,0-7.2-3.22-7.2-7.2V323
			c0-3.98-3.22-7.2-7.2-7.2h-28.8c-3.98,0-7.2,3.22-7.2,7.2v120.02c0,3.98,3.22,7.2,7.2,7.2H1351.18z"/>
	</g>
	<g id="LWPOLYLINE_90_">
		<rect x="1274.5" y="366.05" class="st0" width="17.28" height="36"/>
	</g>
	<g id="CIRCLE_72_">
		<path class="st0" d="M1283.14,332.93c3.2,0,5.8-2.59,5.8-5.8s-2.59-5.8-5.8-5.8s-5.8,2.59-5.8,5.8S1279.93,332.93,1283.14,332.93
			L1283.14,332.93z"/>
	</g>
	<g id="LWPOLYLINE_89_">
		<rect x="1292.5" y="420.05" class="st0" width="36" height="17.28"/>
	</g>
	<g id="CIRCLE_71_">
		<path class="st0" d="M1346.5,434.49c3.2,0,5.8-2.59,5.8-5.8s-2.59-5.8-5.8-5.8s-5.8,2.59-5.8,5.8S1343.29,434.49,1346.5,434.49
			L1346.5,434.49z"/>
	</g>
</g>
<g>
	<g id="LWPOLYLINE_97_">
		<path class="st0" d="M1265.32,457.68c-3.98,0-7.2,3.22-7.2,7.2v28.8c0,3.98,3.22,7.2,7.2,7.2H1306c3.98,0,7.2,3.22,7.2,7.2v76.82
			c0,3.98,3.22,7.2,7.2,7.2h28.8c3.98,0,7.2-3.22,7.2-7.2V464.88c0-3.98-3.22-7.2-7.2-7.2H1265.32z"/>
	</g>
	<g id="LWPOLYLINE_96_">
		<rect x="1324.72" y="505.85" class="st0" width="17.28" height="36"/>
	</g>
	<g id="CIRCLE_76_">
		<path class="st0" d="M1333.36,574.97c-3.2,0-5.8,2.59-5.8,5.8s2.59,5.8,5.8,5.8s5.8-2.59,5.8-5.8S1336.56,574.97,1333.36,574.97
			L1333.36,574.97z"/>
	</g>
	<g id="LWPOLYLINE_95_">
		<rect x="1288" y="470.57" class="st0" width="36" height="17.28"/>
	</g>
	<g id="CIRCLE_75_">
		<path class="st0" d="M1270,473.41c-3.2,0-5.8,2.59-5.8,5.8s2.59,5.8,5.8,5.8s5.8-2.59,5.8-5.8S1273.2,473.41,1270,473.41
			L1270,473.41z"/>
	</g>
</g>
<g>
	<g id="LWPOLYLINE_94_">
		<path class="st0" d="M1347.15,648.34c3.98,0,7.2-3.22,7.2-7.2v-28.8c0-3.98-3.22-7.2-7.2-7.2h-40.68c-3.98,0-7.2-3.22-7.2-7.2
			v-76.82c0-3.98-3.22-7.2-7.2-7.2h-28.8c-3.98,0-7.2,3.22-7.2,7.2v120.02c0,3.98,3.22,7.2,7.2,7.2H1347.15z"/>
	</g>
	<g id="LWPOLYLINE_93_">
		<rect x="1270.47" y="564.17" class="st0" width="17.28" height="36"/>
	</g>
	<g id="CIRCLE_74_">
		<path class="st0" d="M1279.11,531.05c3.2,0,5.8-2.59,5.8-5.8s-2.59-5.8-5.8-5.8s-5.8,2.59-5.8,5.8S1275.91,531.05,1279.11,531.05
			L1279.11,531.05z"/>
	</g>
	<g id="LWPOLYLINE_92_">
		<rect x="1288.47" y="618.17" class="st0" width="36" height="17.28"/>
	</g>
	<g id="CIRCLE_73_">
		<path class="st0" d="M1342.47,632.61c3.2,0,5.8-2.59,5.8-5.8s-2.59-5.8-5.8-5.8s-5.8,2.59-5.8,5.8S1339.27,632.61,1342.47,632.61
			L1342.47,632.61z"/>
	</g>
</g>
</svg>
