<?xml version="1.0" encoding="utf-8"?>
<!-- Generator: Adobe Illustrator 24.2.3, SVG Export Plug-In . SVG Version: 6.00 Build 0)  -->
<svg version="1.1" id="_x30_" xmlns="http://www.w3.org/2000/svg" xmlns:xlink="http://www.w3.org/1999/xlink" x="0px" y="0px"
	 viewBox="0 0 1024 768" style="enable-background:new 0 0 1024 768;" xml:space="preserve">
<style type="text/css">
	.st0{fill:none;stroke:#FF0000;stroke-linecap:round;stroke-linejoin:round;stroke-miterlimit:10;}
</style>
<g id="LWPOLYLINE">
	<path class="st0" d="M452.47,457.36l49.18-64.09c-3.58-2.75-5.92-6.8-6.51-11.27l-80.1,10.54c-5.78-43.88,18.64-86.18,59.53-103.12
		l30.92,74.64c4.17-1.73,8.85-1.73,13.02,0l30.92-74.64c40.89,16.94,65.31,59.23,59.53,103.12L528.86,382
		c-0.59,4.47-2.93,8.53-6.51,11.27l49.18,64.09C536.42,484.31,487.58,484.31,452.47,457.36z"/>
</g>
<g id="CIRCLE">
	<circle class="st0" cx="512" cy="464.82" r="6.52"/>
</g>
<g id="CIRCLE_1_">
	<circle class="st0" cx="512" cy="422.3" r="14.11"/>
</g>
<g id="CIRCLE_2_">
	<circle class="st0" cx="548.82" cy="358.52" r="14.11"/>
</g>
<g id="CIRCLE_3_">
	<circle class="st0" cx="438.35" cy="337.26" r="5.67"/>
</g>
<g id="CIRCLE_4_">
	<circle class="st0" cx="475.18" cy="358.52" r="14.11"/>
</g>
<g id="CIRCLE_5_">
	<circle class="st0" cx="585.65" cy="337.26" r="5.67"/>
</g>
<g id="CIRCLE_12_">
	<circle class="st0" cx="773.5" cy="359.07" r="14.11"/>
</g>
<g id="CIRCLE_11_">
	<circle class="st0" cx="699.85" cy="359.07" r="14.11"/>
</g>
<g id="CIRCLE_10_">
	<circle class="st0" cx="697.4" cy="403.01" r="6.52"/>
</g>
<g id="CIRCLE_9_">
	<circle class="st0" cx="736.68" cy="422.85" r="14.11"/>
</g>
<g id="CIRCLE_8_">
	<circle class="st0" cx="775.95" cy="403.01" r="6.52"/>
</g>
<g id="CIRCLE_7_">
	<circle class="st0" cx="736.68" cy="334.98" r="6.52"/>
</g>
<g id="CIRCLE_6_">
	<circle class="st0" cx="736.68" cy="380.33" r="70.87"/>
</g>
</svg>
